PathFileType	4	(X/Y/Z)	C:/Users/opensim2020/Desktop/walking_exp_matlab/subject01_walking11_straight_02.trc	
DataRate	CameraRate	NumFrames	NumMarkers	Units	OrigDataRate	OrigDataStartFrame	OrigNumFrames	
100.00	100.00	4	44	mm	100.00	2107	266	
Frame#	Time	LFHD			RFHD			LBHD			RBHD			C7			T10			CLAV			STRN			RBAK			LSHO			LUPA			LELB			LFRM			LWRA			LWRB			LFIN			RSHO			RUPA			RELB			RFRM			RWRA			RWRB			RFIN			LASI			RASI			LPSI			RPSI			LTHI			LKNE			LTIB			LANK			LHEE			LTOE			RTHI			RKNE			RTIB			RANK			RHEE			RTOE			*39			*40			*41			*42			*43			
		X1	Y1	Z1	X2	Y2	Z2	X3	Y3	Z3	X4	Y4	Z4	X5	Y5	Z5	X6	Y6	Z6	X7	Y7	Z7	X8	Y8	Z8	X9	Y9	Z9	X10	Y10	Z10	X11	Y11	Z11	X12	Y12	Z12	X13	Y13	Z13	X14	Y14	Z14	X15	Y15	Z15	X16	Y16	Z16	X17	Y17	Z17	X18	Y18	Z18	X19	Y19	Z19	X20	Y20	Z20	X21	Y21	Z21	X22	Y22	Z22	X23	Y23	Z23	X24	Y24	Z24	X25	Y25	Z25	X26	Y26	Z26	X27	Y27	Z27	X28	Y28	Z28	X29	Y29	Z29	X30	Y30	Z30	X31	Y31	Z31	X32	Y32	Z32	X33	Y33	Z33	X34	Y34	Z34	X35	Y35	Z35	X36	Y36	Z36	X37	Y37	Z37	X38	Y38	Z38	X39	Y39	Z39	X40	Y40	Z40	X41	Y41	Z41	X42	Y42	Z42	X43	Y43	Z43	X44	Y44	Z44	

167	1.660	-1004.14905	-291.45630	1652.53052	-1111.57874	-331.77377	1650.15503	-1040.70325	-174.27655	1625.16858	-1154.40247	-214.29141	1622.59106	-1064.88672	-123.18600	1421.21143	-1060.06018	-88.47024	1125.90479	-1060.93152	-266.37918	1352.76038	-1048.29883	-310.35483	1198.81665	-1131.11694	-67.71510	1220.46631	-901.40149	-203.99077	1392.19666	-808.02264	-179.87187	1212.52673	-796.63885	-182.93466	1059.16919	-763.29303	-251.05838	968.78729	-768.68817	-364.58908	888.30444	-749.37976	-313.55569	864.46191	-728.91180	-381.40094	818.99823	-1212.97961	-199.03328	1375.01892	-1301.04297	-126.85096	1174.36670	-1299.59778	-121.14286	1050.46118	-1331.79346	-134.95769	931.87976	-1321.14075	-206.93741	808.16107	-1355.04077	-159.20285	813.25507	-1353.54553	-187.57912	730.85590	-941.19702	-254.64954	915.78015	-1156.28430	-269.99420	926.18585	-1008.39850	-72.89252	930.67914	-1153.88904	-84.22646	934.93445	-899.81213	-178.78870	583.19568	-914.05664	-142.93143	450.80402	-903.25580	-20.86399	304.62244	-949.12207	107.10483	125.89569	-998.65808	163.86662	120.77376	-953.78760	-5.90893	34.19091	-1218.22095	-292.93839	602.94928	-1187.43176	-344.62033	455.51028	-1198.98145	-330.56268	279.53925	-1155.94434	-345.26447	73.77668	-1107.18665	-298.65018	32.89738	-1150.04407	-486.83044	43.37865	-1092.45288	-320.55182	1686.15442	-3101.87671	1973.19885	1023.46356	-3140.76782	2012.52747	1022.17169						 
168	1.670	-1006.26453	-299.38788	1653.20654	-1113.64490	-339.93732	1650.67004	-1043.10059	-182.26073	1625.82263	-1157.03772	-222.46565	1623.29346	-1066.52771	-131.04594	1421.68030	-1061.51367	-96.82772	1126.44299	-1062.89880	-274.48297	1353.53015	-1049.98376	-318.73328	1199.78699	-1132.76892	-75.96293	1220.86169	-903.38617	-211.98283	1393.07935	-810.07782	-187.18475	1213.41553	-798.71594	-189.25798	1060.17603	-765.40326	-257.01364	969.36810	-770.79755	-370.01199	888.02625	-751.82623	-318.47849	864.59515	-730.93134	-386.30429	818.68518	-1214.85889	-207.01627	1375.48767	-1302.90186	-135.61198	1174.56848	-1301.27295	-130.19806	1050.77136	-1333.27612	-144.14297	932.24133	-1322.40247	-216.11975	808.51117	-1356.21631	-168.25862	813.55194	-1354.50012	-196.72141	730.92853	-942.87146	-263.42166	916.31140	-1158.04797	-278.95953	927.22150	-1009.31458	-82.07458	931.42279	-1154.87268	-93.04829	935.91962	-900.77435	-189.56239	583.55933	-914.26483	-154.42516	451.00415	-903.49170	-29.22548	307.44281	-949.05902	102.25761	131.16473	-998.90497	158.54715	128.03229	-953.81396	-6.40995	34.38412	-1219.49219	-300.72601	602.98785	-1188.63586	-350.92764	454.79288	-1200.15479	-335.11691	278.79016	-1156.17419	-346.44061	73.54877	-1107.56287	-299.33615	33.40272	-1150.64221	-487.55930	41.48451	-1094.50366	-328.50177	1686.50793	-3101.95508	1973.03369	1023.50830	-3140.64063	2012.54004	1022.18939						 
169	1.680	-1008.24597	-307.32617	1654.11145	-1115.68994	-348.06146	1651.26392	-1045.44189	-190.26805	1626.58899	-1159.33337	-230.67145	1623.88574	-1068.46167	-138.86298	1422.30542	-1062.95300	-105.18645	1127.06323	-1064.80811	-282.44421	1354.46387	-1051.66309	-327.01807	1200.79895	-1134.36243	-84.23135	1221.30652	-905.36218	-219.87619	1393.96033	-812.01788	-194.44768	1214.41089	-800.89520	-195.64864	1061.18726	-767.64240	-262.92606	969.80640	-773.01581	-375.19598	887.60376	-754.11261	-323.61130	864.54974	-733.30316	-391.08926	818.02179	-1216.81714	-214.95110	1376.23047	-1304.66467	-144.30176	1174.91431	-1302.87659	-139.25421	1051.23621	-1334.78564	-153.35608	932.79065	-1323.72241	-225.44499	809.06482	-1357.71350	-177.82124	814.16003	-1355.81836	-206.06062	731.55280	-944.77026	-272.15405	916.94293	-1159.96838	-287.79987	928.16522	-1010.45209	-91.19925	932.35254	-1156.16711	-101.90054	936.95660	-901.58838	-200.94165	583.87250	-914.21368	-166.54257	451.23129	-903.60516	-38.10912	310.54916	-949.06720	96.61178	136.60977	-999.47095	152.07230	135.62930	-954.04346	-7.05879	34.59756	-1220.69482	-307.79654	602.90778	-1189.66370	-356.98483	454.22345	-1201.12891	-339.07397	278.19052	-1156.22888	-347.34268	73.32066	-1107.47314	-299.59335	33.48724	-1150.49414	-488.43695	40.03832	-1096.70874	-336.68069	1687.26563	-3101.92822	1973.14026	1023.22003	-3140.57153	2012.53430	1022.01727						 
170	1.690	-1010.47614	-315.30939	1654.83411	-1117.66467	-356.19720	1651.87439	-1047.59216	-198.19798	1627.44055	-1161.40320	-238.85194	1624.50378	-1070.78760	-146.76721	1423.15063	-1064.46948	-113.46005	1127.78247	-1066.61206	-290.41174	1355.46057	-1053.21533	-335.23926	1201.87769	-1136.02527	-92.57241	1221.87695	-907.24152	-227.24701	1395.14355	-813.80481	-201.88744	1215.43958	-803.19739	-202.21330	1062.14612	-769.84094	-268.61169	970.27570	-775.19556	-380.25443	887.09375	-756.13611	-328.56161	864.30920	-735.47595	-395.44025	817.43365	-1218.58411	-222.98230	1377.11377	-1306.45813	-152.94153	1175.50720	-1304.58740	-148.27231	1051.90918	-1336.26392	-162.65796	933.43329	-1325.02148	-234.93327	809.85980	-1359.16943	-187.26224	814.93250	-1356.89978	-215.53175	732.02032	-946.73633	-281.18124	917.84351	-1161.92456	-296.55716	929.07727	-1011.89899	-100.14678	933.41675	-1157.68713	-110.80932	937.94629	-902.24054	-212.83018	584.19568	-913.96521	-179.28560	451.49686	-903.68903	-47.79666	313.82516	-949.15320	89.86288	142.22726	-1000.12683	144.56781	143.73291	-954.44122	-7.82639	34.78677	-1221.85657	-314.28433	602.89008	-1190.56653	-362.79984	453.82849	-1201.84985	-342.87485	277.90588	-1156.13550	-348.17319	73.21585	-1107.63281	-299.83044	33.71535	-1149.44751	-489.02802	38.94220	-1098.83252	-344.98004	1687.94080	-3101.90723	1973.07825	1023.50671	-3140.55981	2012.58179	1022.08832						 
